<svg id="Layer_1" data-name="Layer 1" xmlns="http://www.w3.org/2000/svg" width="224" height="88.09" viewBox="0 0 224 88.09">
  <defs>
    <style>
      .cls-1 {
        fill: #fff;
      }

      .cls-2 {
        fill: #f22076;
      }
    </style>
  </defs>
  <g>
    <path class="cls-1" d="M48.63,87.3a.75.75,0,0,1-.75.74.72.72,0,0,1-.69-.5l-.28-.8H43.83l-.28.8a.74.74,0,0,1-1.44-.24,1,1,0,0,1,0-.26l2-5.18a1.29,1.29,0,0,1,2.4,0l2,5.18A.71.71,0,0,1,48.63,87.3Zm-2.17-1.82-1.09-3.1-1.09,3.1Z"/>
    <path class="cls-1" d="M58.45,86.84a.68.68,0,0,1,1.07-.57,2.93,2.93,0,0,0,1.72.54c.81,0,1.2-.38,1.2-.77s-.6-.68-1.39-.87c-1.12-.26-2.56-.56-2.56-2.1,0-1.14,1-2.06,2.7-2.06a4.14,4.14,0,0,1,2.13.56.66.66,0,0,1,.34.58.69.69,0,0,1-.67.68.58.58,0,0,1-.35-.11,3.27,3.27,0,0,0-1.55-.44c-.76,0-1.11.29-1.11.7s.58.61,1.37.79c1.13.26,2.57.6,2.57,2.12,0,1.25-.9,2.2-2.75,2.2a4.1,4.1,0,0,1-2.41-.69A.66.66,0,0,1,58.45,86.84Z"/>
    <path class="cls-1" d="M74.15,87.31V83l-1.86,4.74a.44.44,0,0,1-.39.27.43.43,0,0,1-.39-.27L69.65,83v4.28a.73.73,0,0,1-.72.73.74.74,0,0,1-.74-.73V82.23a1.19,1.19,0,0,1,2.31-.42l1.4,3.58,1.41-3.58A1.18,1.18,0,0,1,74.42,81a1.19,1.19,0,0,1,1.2,1.19v5.08a.74.74,0,0,1-1.47,0Z"/>
    <path class="cls-1" d="M86.32,87.3a.74.74,0,0,1-.75.74.72.72,0,0,1-.68-.5l-.28-.8H81.53l-.28.8a.74.74,0,0,1-1.44-.24,1,1,0,0,1,0-.26l2-5.18a1.3,1.3,0,0,1,2.41,0l2,5.18A.71.71,0,0,1,86.32,87.3Zm-2.16-1.82-1.09-3.1L82,85.48Z"/>
    <path class="cls-1" d="M95.88,86.89A.72.72,0,0,1,95.32,88a.76.76,0,0,1-.6-.31l-1.54-2.22H92v1.8a.73.73,0,0,1-.72.73.74.74,0,0,1-.74-.73V81.88a.7.7,0,0,1,.78-.77h2.43A2.13,2.13,0,0,1,96,83.32a2,2,0,0,1-1.3,2ZM92,84.26h1.54a.95.95,0,1,0,0-1.89H92Z"/>
    <path class="cls-1" d="M101.89,87.31V82.4h-1.43a.65.65,0,1,1,0-1.29h4.33a.65.65,0,0,1,0,1.29h-1.43v4.91a.74.74,0,0,1-1.47,0Z"/>
    <path class="cls-1" d="M109.57,87.18V81.77a.74.74,0,0,1,.74-.73.73.73,0,0,1,.72.73v4.91h2.34a.65.65,0,0,1,0,1.29h-3A.71.71,0,0,1,109.57,87.18Z"/>
    <path class="cls-1" d="M122.36,82.17l-2.06,3v2.17a.74.74,0,0,1-1.47,0V85.16l-2.06-3a.64.64,0,0,1-.15-.42.71.71,0,0,1,.71-.71.68.68,0,0,1,.58.31l1.66,2.53,1.65-2.53a.68.68,0,0,1,.57-.31.71.71,0,0,1,.71.71A.68.68,0,0,1,122.36,82.17Z"/>
    <path class="cls-1" d="M126.55,86.41a.84.84,0,1,1-.83.84A.84.84,0,0,1,126.55,86.41Z"/>
    <path class="cls-1" d="M131.83,87.31V81.77a.74.74,0,0,1,.74-.73.73.73,0,0,1,.72.73v5.54a.73.73,0,0,1-.72.73A.74.74,0,0,1,131.83,87.31Z"/>
    <path class="cls-1" d="M141.18,81a3.55,3.55,0,1,1-3.58,3.54A3.45,3.45,0,0,1,141.18,81Zm0,1.29a2.26,2.26,0,1,0,2.08,2.25A2.07,2.07,0,0,0,141.18,82.29Z"/>
    <path class="cls-1" d="M154.67,84.54A3.47,3.47,0,0,1,158.26,81a3.12,3.12,0,0,1,2.45,1,.66.66,0,0,1,.18.46.69.69,0,0,1-.69.69.71.71,0,0,1-.53-.24,1.88,1.88,0,0,0-1.41-.64,2.26,2.26,0,0,0,0,4.5,1.85,1.85,0,0,0,1.42-.64.7.7,0,0,1,.52-.23.69.69,0,0,1,.69.69.65.65,0,0,1-.18.45,3.12,3.12,0,0,1-2.45,1A3.47,3.47,0,0,1,154.67,84.54Z"/>
    <path class="cls-1" d="M168.49,81a3.55,3.55,0,1,1-3.58,3.54A3.44,3.44,0,0,1,168.49,81Zm0,1.29a2.26,2.26,0,1,0,2.08,2.25A2.07,2.07,0,0,0,168.49,82.29Z"/>
    <path class="cls-1" d="M182.35,87.31V83l-1.86,4.74a.44.44,0,0,1-.39.27.43.43,0,0,1-.39-.27L177.85,83v4.28a.73.73,0,0,1-.72.73.74.74,0,0,1-.74-.73V82.23a1.19,1.19,0,0,1,2.31-.42l1.4,3.58,1.41-3.58a1.18,1.18,0,0,1,1.11-.77,1.19,1.19,0,0,1,1.2,1.19v5.08a.74.74,0,0,1-1.47,0Z"/>
    <path class="cls-1" d="M188.46,87.31V81.88a.7.7,0,0,1,.77-.77h2.44a2.2,2.2,0,1,1,0,4.4h-1.75v1.8a.73.73,0,0,1-.72.73A.74.74,0,0,1,188.46,87.31Zm3-4.94h-1.55v1.89h1.55a.95.95,0,1,0,0-1.89Z"/>
    <path class="cls-1" d="M203.46,87.3a.75.75,0,0,1-.75.74.73.73,0,0,1-.69-.5l-.27-.8h-3.09l-.28.8A.73.73,0,0,1,197,87.3,1,1,0,0,1,197,87l2-5.18a1.29,1.29,0,0,1,1.2-.82,1.3,1.3,0,0,1,1.21.82l2,5.18A.71.71,0,0,1,203.46,87.3Zm-2.17-1.82-1.09-3.1-1.09,3.1Z"/>
    <path class="cls-1" d="M212.16,87.66l-3-4.3v4a.73.73,0,0,1-.72.73.74.74,0,0,1-.74-.73V82a1,1,0,0,1,1.74-.55l2.94,4.11V81.77a.73.73,0,0,1,1.46,0v5.37a.9.9,0,0,1-.9.9A.92.92,0,0,1,212.16,87.66Z"/>
    <path class="cls-1" d="M223.86,82.17l-2.06,3v2.17a.74.74,0,0,1-1.47,0V85.16l-2.06-3a.64.64,0,0,1-.15-.42.71.71,0,0,1,.71-.71.68.68,0,0,1,.58.31l1.66,2.53,1.65-2.53a.67.67,0,0,1,.57-.31.71.71,0,0,1,.71.71A.68.68,0,0,1,223.86,82.17Z"/>
  </g>
  <path class="cls-1" d="M29.47,58.53H11.94L7.82,70.23H0L16.86,23.17h7.69L41.34,70.23H33.59ZM27,51.61,20.71,33.72,14.37,51.61Z"/>
  <path class="cls-1" d="M75.07,19.81V70.23H68.12l-.34-2.82a13.6,13.6,0,0,1-9.51,3.49,14.43,14.43,0,0,1-8.16-2.32,15.12,15.12,0,0,1-5.39-6.25,19.81,19.81,0,0,1-1.89-8.7A20.35,20.35,0,0,1,44.68,45,15.32,15.32,0,0,1,50,38.63a14.37,14.37,0,0,1,8.26-2.35,13.68,13.68,0,0,1,9.24,3.23V19.81ZM65.73,61.69q2.33-2.88,2.32-8.06c0-3.41-.78-6.1-2.36-8.07a7.62,7.62,0,0,0-6.27-3A7.72,7.72,0,0,0,53,45.66a12.64,12.64,0,0,0-2.37,8A12.54,12.54,0,0,0,53,61.53a7.71,7.71,0,0,0,6.47,3A7.68,7.68,0,0,0,65.73,61.69Z"/>
  <path class="cls-1" d="M82.69,46.23H103.6v6.19H82.69Z"/>
  <path class="cls-1" d="M112.57,20.11h7.82V63.24h20.23v7H112.57Z"/>
  <path class="cls-1" d="M145.78,20.11h7.55v7.73h-7.55Zm0,13.72h7.55v36.4h-7.55Z"/>
  <path class="cls-1" d="M185.13,38.63a15,15,0,0,1,5.19,6.29,20.65,20.65,0,0,1,1.79,8.64,20.35,20.35,0,0,1-1.86,8.74A15.08,15.08,0,0,1,185,68.58a13.81,13.81,0,0,1-8,2.32,14.19,14.19,0,0,1-9.84-3.49l-.34,2.82h-6.95V19.6h7.56V39.77A14.47,14.47,0,0,1,177,36.28,13.93,13.93,0,0,1,185.13,38.63Zm-3,22.9a13.07,13.07,0,0,0,2.26-8,12.93,12.93,0,0,0-2.26-7.94,7.22,7.22,0,0,0-6.1-3,8,8,0,0,0-6.61,2.89Q167,48.39,167,53.56c0,3.49.79,6.21,2.36,8.13A8,8,0,0,0,176,64.58,7.18,7.18,0,0,0,182.09,61.53Z"/>
  <path class="cls-2" d="M222.87,9.67a2.36,2.36,0,0,0-1.18-2L209,.31a2.37,2.37,0,0,0-2.32,0L193.54,7.63a2.36,2.36,0,0,0-1.2,2.05V25a2.35,2.35,0,0,0,1.2,2.05l14.26,8-.29,10.69a.93.93,0,0,0,1.71.55L222.47,26.6a2.37,2.37,0,0,0,.4-1.31Z"/>
  <g>
    <rect class="cls-1" x="192.35" y="66.8" width="4.74" height="4.66"/>
    <rect class="cls-1" x="199.9" y="46.39" width="4.12" height="4.45"/>
    <rect class="cls-1" x="199.9" y="53.61" width="4.12" height="17.85"/>
    <path class="cls-1" d="M222.92,57.84a8,8,0,0,0-3.1-3.35,9.73,9.73,0,0,0-9.47,0,8.12,8.12,0,0,0-3.09,3.35,11,11,0,0,0,0,9.39,8.25,8.25,0,0,0,3.09,3.35,9.8,9.8,0,0,0,9.47,0,8.08,8.08,0,0,0,3.1-3.35,10.93,10.93,0,0,0,0-9.39Zm-3.13,4.69a6.12,6.12,0,0,1-1.24,4.1,4.94,4.94,0,0,1-6.91,0,6.07,6.07,0,0,1-1.24-4.1,6.09,6.09,0,0,1,1.24-4.1,5,5,0,0,1,6.91,0A6.16,6.16,0,0,1,219.79,62.53Z"/>
  </g>
</svg>
